<?xml version="1.0" encoding="utf-8"?>
<svg version="1.1" id="Layer_1"
xmlns="http://www.w3.org/2000/svg"
xmlns:xlink="http://www.w3.org/1999/xlink"
width="382px" height="174px"
xml:space="preserve">
<g id="PathID_1" transform="matrix(1.80087, 0, 0, 1.80087, -275.95, -264.7)" opacity="1">
<linearGradient
id="LinearGradID_1" gradientUnits="userSpaceOnUse" gradientTransform="matrix(-0.026413, 0.0151062, -0.00212097, -0.00369263, 178.4, 161.8)" spreadMethod ="pad" x1="-819.2" y1="0" x2="819.2" y2="0" >
<stop  offset="0" style="stop-color:#FFFFFF;stop-opacity:1" />
<stop  offset="0.458824" style="stop-color:#999999;stop-opacity:1" />
<stop  offset="1" style="stop-color:#333333;stop-opacity:1" />
</linearGradient>
<path style="fill:url(#LinearGradID_1) " d="M200.8 147.7L200.85 147.65L200.85 147.75L200.8 147.7" />
</g>
<g id="PathID_2" transform="matrix(1.80087, 0, 0, 1.80087, -275.95, -264.7)" opacity="1">
</g>
<g id="PathID_3" transform="matrix(1.80087, 0, 0, 1.80087, 43.85, 25.55)" opacity="1">
<linearGradient
id="LinearGradID_2" gradientUnits="userSpaceOnUse" gradientTransform="matrix(-0.026413, 0.0151062, -0.00212097, -0.00369263, 0.65, 0.5)" spreadMethod ="pad" x1="-819.2" y1="0" x2="819.2" y2="0" >
<stop  offset="0" style="stop-color:#FFFFFF;stop-opacity:1" />
<stop  offset="0.458824" style="stop-color:#999999;stop-opacity:1" />
<stop  offset="1" style="stop-color:#333333;stop-opacity:1" />
</linearGradient>
<path style="fill:url(#LinearGradID_2) " d="M19.8 -6.3Q0.9 1.8 -15.1 13.6L-15.15 13.65L-22.95 10.1L-23 10.05Q-3.65 -6.05 23 -13.6L20.25 -7.25L19.8 -6.3" />
</g>
<g id="PathID_4" transform="matrix(1.80087, 0, 0, 1.80087, 43.85, 25.55)" opacity="1">
</g>
<g id="PathID_5" transform="matrix(1.80087, 0, 0, 1.80087, 102.5, 46.4)" opacity="1">
<linearGradient
id="LinearGradID_3" gradientUnits="userSpaceOnUse" gradientTransform="matrix(0.0168304, 0.0291138, -0.00584412, 0.00337219, -0.55, 1.3)" spreadMethod ="pad" x1="-819.2" y1="0" x2="819.2" y2="0" >
<stop  offset="0" style="stop-color:#DCDCDC;stop-opacity:1" />
<stop  offset="0.490196" style="stop-color:#999999;stop-opacity:1" />
<stop  offset="1" style="stop-color:#333333;stop-opacity:1" />
</linearGradient>
<path style="fill:url(#LinearGradID_3) " d="M-9.45 -25.15Q8.05 -0.55 12.8 25.25L12.8 25.3L5.15 22.4Q0.05 0.75 -12.75 -17.85L-12.3 -18.85L-9.55 -25.2L-9.45 -25.15" />
</g>
<g id="PathID_6" transform="matrix(1.80087, 0, 0, 1.80087, 102.5, 46.4)" opacity="1">
</g>
<g id="PathID_7" transform="matrix(1.80087, 0, 0, 1.80087, 65.25, 64.65)" opacity="1">
<linearGradient
id="LinearGradID_4" gradientUnits="userSpaceOnUse" gradientTransform="matrix(0.0329895, 0, -0, 0.0329895, 0, 0)" spreadMethod ="pad" x1="-819.2" y1="0" x2="819.2" y2="0" >
<stop  offset="0" style="stop-color:#22CFFF;stop-opacity:1" />
<stop  offset="1" style="stop-color:#1953C0;stop-opacity:1" />
</linearGradient>
<path style="fill:url(#LinearGradID_4) " d="M7.9 -27.95Q20.7 -9.35 25.8 12.3L25.85 12.35Q5.75 26.35 -10.85 28.95L-10.85 28.9Q-23.25 10.85 -27 -8.1Q-11 -19.9 7.9 -28L7.9 -27.95" />
</g>
<g id="PathID_8" transform="matrix(1.80087, 0, 0, 1.80087, 65.25, 64.65)" opacity="1">
</g>
<g id="PathID_9" transform="matrix(1.80087, 0, 0, 1.80087, 64.05, 87.4)" opacity="1">
<linearGradient
id="LinearGradID_5" gradientUnits="userSpaceOnUse" gradientTransform="matrix(0.0160522, 0.0279999, -0.00570679, 0.00328064, -21.3, -1.3)" spreadMethod ="pad" x1="-819.2" y1="0" x2="819.2" y2="0" >
<stop  offset="0" style="stop-color:#FFFFFF;stop-opacity:1" />
<stop  offset="0.490196" style="stop-color:#999999;stop-opacity:1" />
<stop  offset="1" style="stop-color:#333333;stop-opacity:1" />
</linearGradient>
<path style="fill:url(#LinearGradID_5) " d="M-10.3 16.25L-12.85 24.1L-12.7 24.1L-12.8 24.35Q-29.65 2.95 -34.15 -24.3L-26.35 -20.75L-26.3 -20.8Q-22.55 -1.85 -10.15 16.2L-10.15 16.25L-10.3 16.25" />
<linearGradient
id="LinearGradID_6" gradientUnits="userSpaceOnUse" gradientTransform="matrix(-0.0275269, 0.0157623, -0.00308228, -0.00540161, 9.2, 10.8)" spreadMethod ="pad" x1="-819.2" y1="0" x2="819.2" y2="0" >
<stop  offset="0" style="stop-color:#FFFFFF;stop-opacity:1" />
<stop  offset="0.490196" style="stop-color:#999999;stop-opacity:1" />
<stop  offset="1" style="stop-color:#333333;stop-opacity:1" />
</linearGradient>
<path style="fill:url(#LinearGradID_6) " d="M-10.15 16.25Q6.45 13.65 26.55 -0.35L34.15 2.5Q11.7 21.15 -12.7 24.1L-12.85 24.1L-10.3 16.25L-10.15 16.25" />
</g>
<g id="PathID_10" transform="matrix(1.80087, 0, 0, 1.80087, 64.05, 87.4)" opacity="1">
</g>
<g id="PathID_11" transform="matrix(1.80087, 0, 0, 1.80087, -275.95, -264.7)" opacity="1">
<radialGradient
id="RadialGradID_7" gradientUnits="userSpaceOnUse" gradientTransform="matrix(0.0443573, 0, 0, 0.00468445, 189.5, 221.8)" spreadMethod ="pad" cx="0" cy="0" r="819.2" fx="0" fy="0" >
<stop  offset="0.00392157"  style="stop-color:#CCCCCC;stop-opacity:1" />
<stop  offset="0.768627"  style="stop-color:#464646;stop-opacity:0" />
</radialGradient>
<path style="fill:url(#RadialGradID_7) " d="M215.1 224.25L189.5 225.25L163.85 224.25Q153.25 223.25 153.25 221.8Q153.25 220.4 163.85 219.4L189.5 218.4L215.1 219.4Q225.75 220.4 225.75 221.8Q225.75 223.25 215.1 224.25" />
</g>
<g id="PathID_12" transform="matrix(1.80087, 0, 0, 1.80087, -275.95, -264.7)" opacity="1">
</g>
<g id="PathID_13" transform="matrix(1.80087, 0, 0, 1.80087, 56.75, 64.75)" opacity="1">
<radialGradient
id="RadialGradID_8" gradientUnits="userSpaceOnUse" gradientTransform="matrix(0.0388184, 0, 0, 0.0388184, 0.05, 0)" spreadMethod ="pad" cx="0" cy="0" r="819.2" fx="0" fy="0" >
<stop  offset="0"  style="stop-color:#FFFFFF;stop-opacity:0.552941" />
<stop  offset="1"  style="stop-color:#FFFFFF;stop-opacity:0" />
</radialGradient>
<path style="fill:url(#RadialGradID_8) " d="M21.1 -13.8L22.25 -11.4L19.7 -11.15Q9.75 -9.75 2.35 -2.05Q-6.75 7.4 -6.75 20.8Q-6.75 25.05 -5.8 28.95L-6.05 28.95L-6.05 28.9Q-18.45 10.85 -22.2 -8.1Q-6.2 -19.9 12.7 -28L12.7 -27.95Q17.4 -21.1 21.1 -13.8" />
</g>
<g id="PathID_14" transform="matrix(1.80087, 0, 0, 1.80087, 56.75, 64.75)" opacity="1">
</g>
<g id="PathID_15" transform="matrix(-1.5204, 0.842114, 0.825126, 1.48873, 221.55, 102.75)" opacity="1">
<path style="fill:#2F57EB;fill-opacity:1" d="M42.1 -25.5L42.1 -23.05L9.05 -23.05L9.05 -25.5L42.1 -25.5M42.1 -16.15L42.1 -13.7L9.05 -13.7L9.05 -16.15L42.1 -16.15M35 -6.75Q36.25 -6.75 37.15 -5.8Q37.9 -5 37.9 -3.9Q37.9 -2.6 36.95 -1.7Q36.1 -1 35 -1Q33.65 -1 32.8 -1.9Q32.05 -2.75 32.05 -3.9Q32.05 -5.2 33.4 -6.15Q33.85 -6.75 35 -6.75M16.2 -38.15Q17.5 -38.15 18.4 -37.1Q19.1 -36.35 19.1 -35.25Q19.1 -33.95 18.15 -33.1Q17.35 -32.35 16.2 -32.35Q14.9 -32.35 14 -33.3Q13.3 -34.1 13.3 -35.25Q13.3 -36.55 14.65 -37.5Q15.05 -38.15 16.2 -38.15" />
</g>
<g id="PathID_16" transform="matrix(-1.5204, 0.842114, 0.825126, 1.48873, 221.55, 102.75)" opacity="1">
</g>
<filter id="filter7" x="-0.628572" y="-0.628572" width="2.43714" height="2.43714" >
<feComponentTransfer in="SourceGraphic">
	<feFuncR type="linear" slope="0"/>
	<feFuncG type="linear" slope="0"/>
	<feFuncB type="linear" slope="0"/>
</feComponentTransfer>
<feGaussianBlur stdDeviation="6 6" />
<feOffset result="1" dx="24.5746" dy="17.2073"/>
<feComponentTransfer in="SourceGraphic">
	<feFuncR type="linear" slope="0"/>
	<feFuncG type="linear" slope="0"/>
	<feFuncB type="linear" slope="0"/>
</feComponentTransfer>
<feGaussianBlur stdDeviation="6 6" />
<feOffset result="2" dx="-24.5746" dy="-17.2073"/>
<feComposite  in="1" in2="2" operator="arithmetic" k2="1" k3="-1"/>
<feComponentTransfer result="3">
	<feFuncR type="linear" Ue="0" intercept="0.65098"/>
	<feFuncG type="linear" Ue="0" intercept="0.862745"/>
	<feFuncB type="linear" Ue="0" intercept="1"/>
	<feFuncA type="linear" xh="0" slope="1.58984"/>
</feComponentTransfer>
<feComposite  in="2" in2="1" operator="arithmetic" k2="1" k3="-1"/>
<feComponentTransfer result="4">
	<feFuncR type="linear" Ue="0" intercept="0.176471"/>
	<feFuncG type="linear" Ue="0" intercept="0.380392"/>
	<feFuncB type="linear" Ue="0" intercept="0.509804"/>
	<feFuncA type="linear" xh="0" slope="1.58984"/>
</feComponentTransfer>
<feComposite result="5"  in="3" in2="4" operator="arithmetic" k2="1" k3="1"/>
<feComposite result="6"  in="5" in2="SourceGraphic" operator="atop"/>
</filter>
<g style="filter:url(#filter7);">
<g id="PathID_17" transform="matrix(1.17299, 0, 0, 1.17299, 209.5, 128.5)" opacity="1">
<path style="fill:#51AEE8;fill-opacity:1" d="M3.65 0L3.65 -36.05L19.1 -36.05Q29.65 -36.05 29.65 -27.15Q29.65 -19.95 19.85 -16.75L31.9 0L25.15 0L13.75 -16.1L13.75 -19.65Q23.8 -21.25 23.8 -26.95Q23.8 -31.3 18.7 -31.3L9.2 -31.3L9.2 0L3.65 0" />
</g>
<g id="PathID_18" transform="matrix(1.17299, 0, 0, 1.17299, 209.5, 128.5)" opacity="1">
</g>
<g id="PathID_19" transform="matrix(1.17299, 0, 0, 1.17299, 244.8, 128.5)" opacity="1">
<path style="fill:#51AEE8;fill-opacity:1" d="M25.25 -11.55L8 -11.55Q8 -4.65 17.45 -4.65Q20.8 -4.65 24.75 -5.4L24.75 -0.8Q20.9 0 15.95 0Q2.45 0 2.45 -13.65Q2.45 -26.75 15.25 -26.75Q27.6 -26.75 25.25 -11.55M8 -16.35L20.2 -16.35Q20.5 -22.1 14.55 -22.1Q8.4 -22.1 8 -16.35" />
</g>
<g id="PathID_20" transform="matrix(1.17299, 0, 0, 1.17299, 244.8, 128.5)" opacity="1">
</g>
<g id="PathID_21" transform="matrix(1.17299, 0, 0, 1.17299, 275.55, 128.5)" opacity="1">
<path style="fill:#51AEE8;fill-opacity:1" d="M2.45 -8.5Q2.45 -16.95 13.4 -16.95Q17.25 -16.95 19.6 -16.45L19.6 -18.35Q19.6 -22.05 13.15 -22.05Q9.3 -22.05 4.5 -20.85L4.5 -25.4Q9.1 -26.75 13.15 -26.75Q25.15 -26.75 25.15 -18L25.15 0L22.1 0L20.4 -1.8Q17.3 0 12.6 0Q2.45 0 2.45 -8.5M13.4 -12.25Q8 -12.25 8 -8.6Q8 -4.65 12.6 -4.65Q17.15 -4.65 19.6 -6.45L19.6 -11.85Q17.35 -12.25 13.4 -12.25" />
</g>
<g id="PathID_22" transform="matrix(1.17299, 0, 0, 1.17299, 275.55, 128.5)" opacity="1">
</g>
<g id="PathID_23" transform="matrix(1.17299, 0, 0, 1.17299, 306.45, 128.5)" opacity="1">
<path style="fill:#51AEE8;fill-opacity:1" d="M9.2 -36.05L9.2 0L3.65 0L3.65 -36.05L9.2 -36.05" />
</g>
<g id="PathID_24" transform="matrix(1.17299, 0, 0, 1.17299, 306.45, 128.5)" opacity="1">
</g>
<g id="PathID_25" transform="matrix(1.17299, 0, 0, 1.17299, 318.25, 128.5)" opacity="1">
<path style="fill:#51AEE8;fill-opacity:1" d="M9.2 -36.05L9.2 -31.35L3.65 -31.35L3.65 -36.05L9.2 -36.05M9.2 -26.7L9.2 0L3.65 0L3.65 -26.7L9.2 -26.7" />
</g>
<g id="PathID_26" transform="matrix(1.17299, 0, 0, 1.17299, 318.25, 128.5)" opacity="1">
</g>
<g id="PathID_27" transform="matrix(1.17299, 0, 0, 1.17299, 330.1, 128.5)" opacity="1">
<path style="fill:#51AEE8;fill-opacity:1" d="M3.65 -30.9L7.4 -30.9L8.4 -26.7L14.5 -26.7L14.5 -22.05L9.2 -22.05L9.2 -7.75Q9.2 -4.65 11.8 -4.65L14.5 -4.65L14.5 0L10.65 0Q3.65 0 3.65 -7.4L3.65 -30.9" />
</g>
<g id="PathID_28" transform="matrix(1.17299, 0, 0, 1.17299, 330.1, 128.5)" opacity="1">
</g>
<g id="PathID_29" transform="matrix(1.17299, 0, 0, 1.17299, 346.7, 128.5)" opacity="1">
<path style="fill:#51AEE8;fill-opacity:1" d="M0.6 -26.75L6.4 -26.75L13.35 -6.65L20.5 -26.75L26.15 -26.75L14.9 0.75Q12.5 7.65 6.15 9.5L4.2 5.55Q8.6 3.5 10.45 -0.35L0.6 -26.75" />
</g>
<g id="PathID_30" transform="matrix(1.17299, 0, 0, 1.17299, 346.7, 128.5)" opacity="1">
</g>
</g>
<g id="PathID_31" transform="matrix(2.15381, -0.0529987, 0.062616, 2.15355, 33.45, 103.65)" opacity="1">
<linearGradient
id="LinearGradID_9" gradientUnits="userSpaceOnUse" gradientTransform="matrix(-0.00607804, -0.014319, 0.0150381, -0.0063833, 12.75, -13.35)" spreadMethod ="pad" x1="-819.2" y1="0" x2="819.2" y2="0" >
<stop  offset="0" style="stop-color:#FFFFFF;stop-opacity:0.698039" />
<stop  offset="0.835294" style="stop-color:#FFFFFF;stop-opacity:1" />
</linearGradient>
<path style="fill:url(#LinearGradID_9) " d="M0 -26.75L5.75 -26.75L12.75 -6.55L19.75 -26.75L25.5 -26.75L14.9 0L9.95 0L0 -26.75" />
</g>
<g id="PathID_32" transform="matrix(2.15381, -0.0529987, 0.062616, 2.15355, 33.45, 103.65)" opacity="1">
</g>
</svg>