<?xml version="1.0" encoding="utf-8"?>
<svg version="1.1" id="Layer_1"
xmlns="http://www.w3.org/2000/svg"
xmlns:xlink="http://www.w3.org/1999/xlink"
width="414px" height="282px"
xml:space="preserve">
<filter id="filter3" x="-0.628572" y="-0.628572" width="2.43714" height="2.43714" >
<feComponentTransfer in="SourceGraphic">
	<feFuncR type="linear" slope="0"/>
	<feFuncG type="linear" slope="0"/>
	<feFuncB type="linear" slope="0"/>
</feComponentTransfer>
<feGaussianBlur stdDeviation="6 6" />
<feComponentTransfer result="1">
	<feFuncR type="linear" Ue="0" intercept="0"/>
	<feFuncG type="linear" Ue="0" intercept="1"/>
	<feFuncB type="linear" Ue="0" intercept="0.164706"/>
	<feFuncA type="linear" xh="0" slope="2"/>
</feComponentTransfer>
<feComposite result="2"  in="1" in2="SourceGraphic" operator="out"/>
</filter>
<g style="filter:url(#filter3);">
<g id="PathID_1" transform="matrix(3.84868, 0, 0, 3.84868, 14.1, 209.2)" opacity="1">
<path style="fill:#00FF2C;fill-opacity:1" d="M31.6 -38.65L19.35 -0.95L13.75 -0.95L1.7 -38.65L6.5 -38.65L12.95 -17.15L14.8 -10.6L16.4 -4.95L17.2 -4.95L18.95 -11.3Q19.85 -14.7 20.55 -17L27.15 -38.65L31.6 -38.65" />
</g>
<g id="PathID_2" transform="matrix(3.84868, 0, 0, 3.84868, 14.1, 209.2)" opacity="1">
</g>
<g id="PathID_3" transform="matrix(3.84868, 0, 0, 3.84868, 265.3, 209.2)" opacity="1">
<path style="fill:#00FF2C;fill-opacity:1" d="M5.35 -38.65L18.05 -38.65Q31 -38.65 31 -28.75Q31 -24.95 28.75 -22.4Q26.65 -20.1 23 -19.25L32.05 -0.95L27.1 -0.95L18.8 -18.55L9.7 -18.55L9.7 -0.95L5.35 -0.95L5.35 -38.65M9.7 -35.05L9.7 -22.05L17.5 -22.05Q26.45 -22.05 26.45 -28.7Q26.45 -32.1 24.2 -33.6Q22.1 -35.05 17.8 -35.05L9.7 -35.05" />
</g>
<g id="PathID_4" transform="matrix(3.84868, 0, 0, 3.84868, 265.3, 209.2)" opacity="1">
</g>
</g>
<filter id="filter6" x="-0.589048" y="-0.589048" width="2.3581" height="2.3581" >
<feComponentTransfer in="SourceGraphic">
	<feFuncR type="linear" slope="0"/>
	<feFuncG type="linear" slope="0"/>
	<feFuncB type="linear" slope="0"/>
</feComponentTransfer>
<feGaussianBlur stdDeviation="4 4" />
<feComponentTransfer result="4">
	<feFuncR type="linear" Ue="0" intercept="1"/>
	<feFuncG type="linear" Ue="0" intercept="0.14902"/>
	<feFuncB type="linear" Ue="0" intercept="0.8"/>
	<feFuncA type="linear" xh="0" slope="1"/>
</feComponentTransfer>
<feComposite result="5"  in="SourceGraphic" in2="4" operator="over"/>
</filter>
<g style="filter:url(#filter6);">
<g id="PathID_5" transform="matrix(1, 0, 0, 1, 213, 130)" opacity="1">
</g>
<g id="PathID_6" transform="matrix(1, 0, 0, 1, 213, 130)" opacity="1">
<path style="fill:none;stroke-width:13;stroke-linecap:round;stroke-linejoin:round;stroke-miterlimit:3;stroke:#DA61BC;stroke-opacity:1" d="M-55 -49.5L55 49.5" />
</g>
</g>
<filter id="filter9" x="-0.589048" y="-0.589048" width="2.3581" height="2.3581" >
<feComponentTransfer in="SourceGraphic">
	<feFuncR type="linear" slope="0"/>
	<feFuncG type="linear" slope="0"/>
	<feFuncB type="linear" slope="0"/>
</feComponentTransfer>
<feGaussianBlur stdDeviation="4 4" />
<feComponentTransfer result="7">
	<feFuncR type="linear" Ue="0" intercept="1"/>
	<feFuncG type="linear" Ue="0" intercept="0.14902"/>
	<feFuncB type="linear" Ue="0" intercept="0.8"/>
	<feFuncA type="linear" xh="0" slope="1"/>
</feComponentTransfer>
<feComposite result="8"  in="SourceGraphic" in2="7" operator="over"/>
</filter>
<g style="filter:url(#filter9);">
<g id="PathID_7" transform="matrix(1, 0, 0, 1, 192, 153)" opacity="1">
</g>
<g id="PathID_8" transform="matrix(1, 0, 0, 1, 192, 153)" opacity="1">
<path style="fill:none;stroke-width:13;stroke-linecap:round;stroke-linejoin:round;stroke-miterlimit:3;stroke:#DA61BC;stroke-opacity:1" d="M-55 -49.5L55 49.5" />
</g>
</g>
<g id="PathID_9" transform="matrix(1, 0, 0, 1, 188, 62)" opacity="1">
<path style="fill:#FFFFFF;fill-opacity:1" d="M8.45 8.1Q4.95 11.45 0 11.45Q-4.95 11.45 -8.45 8.1Q-11.95 4.75 -11.95 0Q-11.95 -4.75 -8.45 -8.1Q-4.95 -11.45 0 -11.45Q4.95 -11.45 8.45 -8.1Q11.95 -4.75 11.95 0Q11.95 4.75 8.45 8.1" />
</g>
<g id="PathID_10" transform="matrix(1, 0, 0, 1, 188, 62)" opacity="1">
<path style="fill:none;stroke-width:1;stroke-linecap:round;stroke-linejoin:round;stroke-miterlimit:3;stroke:#FFFFFF;stroke-opacity:1" d="M8.45 8.1Q4.95 11.45 0 11.45Q-4.95 11.45 -8.45 8.1Q-11.95 4.75 -11.95 0Q-11.95 -4.75 -8.45 -8.1Q-4.95 -11.45 0 -11.45Q4.95 -11.45 8.45 -8.1Q11.95 -4.75 11.95 0Q11.95 4.75 8.45 8.1z" />
</g>
<g id="PathID_11" transform="matrix(1, 0, 0, 1, 209, 215)" opacity="1">
<path style="fill:#FFFFFF;fill-opacity:1" d="M8.45 8.1Q4.95 11.45 0 11.45Q-4.95 11.45 -8.45 8.1Q-11.95 4.75 -11.95 0Q-11.95 -4.75 -8.45 -8.1Q-4.95 -11.45 0 -11.45Q4.95 -11.45 8.45 -8.1Q11.95 -4.75 11.95 0Q11.95 4.75 8.45 8.1" />
</g>
<g id="PathID_12" transform="matrix(1, 0, 0, 1, 209, 215)" opacity="1">
<path style="fill:none;stroke-width:1;stroke-linecap:round;stroke-linejoin:round;stroke-miterlimit:3;stroke:#FFFFFF;stroke-opacity:1" d="M8.45 8.1Q4.95 11.45 0 11.45Q-4.95 11.45 -8.45 8.1Q-11.95 4.75 -11.95 0Q-11.95 -4.75 -8.45 -8.1Q-4.95 -11.45 0 -11.45Q4.95 -11.45 8.45 -8.1Q11.95 -4.75 11.95 0Q11.95 4.75 8.45 8.1z" />
</g>
</svg>
