<?xml version="1.0" encoding="utf-8"?>
<svg version="1.1" id="Layer_1"
xmlns="http://www.w3.org/2000/svg"
xmlns:xlink="http://www.w3.org/1999/xlink"
width="529px" height="437px"
xml:space="preserve">
<g id="PathID_39" transform="matrix(1.05575, 0, 0, 1.05575, 14.5, 153.85)" opacity="1">
<path style="fill:#A41D00;fill-opacity:1" d="M39.35 -29.7L23 0L17.45 0L1.05 -29.7L7.45 -29.7L20.2 -6.25L33 -29.7L39.35 -29.7" />
</g>
<g id="PathID_40" transform="matrix(1.05575, 0, 0, 1.05575, 14.5, 153.85)" opacity="1">
</g>
<g id="PathID_41" transform="matrix(1.05575, 0, 0, 1.05575, 57.15, 153.85)" opacity="1">
<path style="fill:#A41D00;fill-opacity:1" d="M2.65 -29.7L8.2 -29.7L8.2 0L2.65 0L2.65 -29.7M8.2 -39.4L8.2 -33.9L2.65 -33.9L2.65 -39.4L8.2 -39.4" />
</g>
<g id="PathID_42" transform="matrix(1.05575, 0, 0, 1.05575, 57.15, 153.85)" opacity="1">
</g>
<g id="PathID_43" transform="matrix(1.05575, 0, 0, 1.05575, 68.3, 153.85)" opacity="1">
<path style="fill:#A41D00;fill-opacity:1" d="M25.9 -29.7L25.9 -24.15L9.3 -24.15Q8.85 -24.15 8.5 -23.85Q8.2 -23.5 8.2 -23.05L8.2 0L2.65 0L2.65 -6.65L2.65 -23.05Q2.65 -24.4 3.15 -25.6Q3.7 -26.8 4.6 -27.75Q5.55 -28.65 6.75 -29.2Q7.95 -29.7 9.3 -29.7L25.9 -29.7" />
</g>
<g id="PathID_44" transform="matrix(1.05575, 0, 0, 1.05575, 68.3, 153.85)" opacity="1">
</g>
<g id="PathID_45" transform="matrix(1.05575, 0, 0, 1.05575, 95.9, 153.85)" opacity="1">
<path style="fill:#A41D00;fill-opacity:1" d="M8.25 -24.15L8.25 -6.65Q8.25 -6.2 8.55 -5.85Q8.9 -5.5 9.35 -5.5L20.4 -5.5L20.4 0L9.35 0Q8 0 6.8 -0.5Q5.6 -1 4.65 -1.95Q3.75 -2.85 3.2 -4.05Q2.7 -5.25 2.7 -6.65L2.7 -23.05L2.7 -39.4L8.25 -39.4L8.25 -29.7L20.4 -29.7L20.4 -24.15L8.25 -24.15" />
</g>
<g id="PathID_46" transform="matrix(1.05575, 0, 0, 1.05575, 95.9, 153.85)" opacity="1">
</g>
<g id="PathID_47" transform="matrix(1.05575, 0, 0, 1.05575, 117.95, 153.85)" opacity="1">
<path style="fill:#A41D00;fill-opacity:1" d="M32.9 -29.7L32.9 -6.65Q32.9 -5.25 32.4 -4.05Q31.9 -2.85 30.95 -1.95Q30.05 -1 28.85 -0.5Q27.65 0 26.25 0L9.35 0Q8 0 6.8 -0.5Q5.6 -1 4.65 -1.95Q3.75 -2.85 3.2 -4.05Q2.7 -5.25 2.7 -6.65L2.7 -29.7L8.25 -29.7L8.25 -6.65Q8.25 -6.2 8.55 -5.85Q8.9 -5.5 9.35 -5.5L26.25 -5.5Q26.7 -5.5 27.05 -5.85Q27.4 -6.2 27.4 -6.65L27.4 -29.7L32.9 -29.7" />
</g>
<g id="PathID_48" transform="matrix(1.05575, 0, 0, 1.05575, 117.95, 153.85)" opacity="1">
</g>
<g id="PathID_49" transform="matrix(1.05575, 0, 0, 1.05575, 155.45, 153.85)" opacity="1">
<path style="fill:#A41D00;fill-opacity:1" d="M26.2 -29.7Q27.6 -29.7 28.8 -29.2Q30 -28.65 30.9 -27.75Q31.85 -26.8 32.35 -25.6Q32.85 -24.4 32.85 -23.05L32.85 0L9.3 0Q7.95 0 6.75 -0.5Q5.55 -1 4.6 -1.95Q3.7 -2.85 3.15 -4.05Q2.65 -5.25 2.65 -6.65L2.65 -17.6L27.35 -17.6L27.35 -23.05Q27.35 -23.5 27 -23.85Q26.65 -24.15 26.2 -24.15L2.65 -24.15L2.65 -29.7L26.2 -29.7M27.35 -12.05L8.2 -12.05L8.2 -6.65Q8.2 -6.2 8.5 -5.85Q8.85 -5.5 9.3 -5.5L27.35 -5.5L27.35 -12.05" />
</g>
<g id="PathID_50" transform="matrix(1.05575, 0, 0, 1.05575, 155.45, 153.85)" opacity="1">
</g>
<g id="PathID_51" transform="matrix(1.05575, 0, 0, 1.05575, 192.95, 153.85)" opacity="1">
<path style="fill:#A41D00;fill-opacity:1" d="M2.65 -23.05L2.65 -39.4L8.2 -39.4L8.2 -6.65Q8.2 -6.2 8.5 -5.85Q8.85 -5.5 9.3 -5.5L14.85 -5.5L14.85 0L9.3 0Q7.95 0 6.75 -0.5Q5.55 -1 4.6 -1.95Q3.7 -2.85 3.15 -4.05Q2.65 -5.25 2.65 -6.65L2.65 -23.05" />
</g>
<g id="PathID_52" transform="matrix(1.05575, 0, 0, 1.05575, 192.95, 153.85)" opacity="1">
</g>
<g id="PathID_53" transform="matrix(4.50876, 0, 0, 4.50876, 33.3, 315.45)" opacity="1">
<path style="fill:#2E006F;fill-opacity:1" d="M20.3 -6.6L21.3 -9.6Q21.9 -11.65 22.5 -13.35L27.9 -29Q28.95 -32.15 28.95 -33.95Q28.95 -34.7 28.75 -35.15Q28.05 -36.65 25.1 -36.95Q24.45 -36.95 24.45 -37.65Q24.45 -38.45 25.1 -38.45L28.45 -38.3L31.35 -38.25L34.5 -38.35L37.15 -38.45Q37.6 -38.45 37.6 -37.7Q37.6 -36.95 37.15 -36.95Q35.05 -36.7 33.55 -35.15Q32.1 -33.6 30.4 -29L23.7 -10.75Q22.5 -7.5 20.6 -1.8Q17.1 -0.2 16.65 -0.2Q16.45 -0.2 16.3 -0.5Q15.1 -4.3 12.8 -10.6L6 -29Q4.05 -34.45 3.15 -35.5Q2.45 -36.35 1.75 -36.6Q1.15 -36.85 -0.35 -36.95Q-0.8 -37 -0.8 -37.65Q-0.8 -38.45 -0.35 -38.45Q4.4 -38.25 6.9 -38.25Q9.8 -38.25 14.2 -38.45Q14.75 -38.45 14.75 -37.65Q14.75 -36.95 14.2 -36.95Q12.4 -36.75 11.85 -36.55Q11.05 -36.3 10.8 -35.6Q10.7 -35.35 10.7 -34.95Q10.7 -33.9 12.4 -29.05L18.1 -13.15Q19.6 -8.95 20.3 -6.6" />
</g>
<g id="PathID_54" transform="matrix(4.50876, 0, 0, 4.50876, 33.3, 315.45)" opacity="1">
</g>
<g id="PathID_55" transform="matrix(3.38536, 3.38536, -3.38536, 3.38536, 105.45, 204.15)" opacity="1">
<path style="fill:#A41D00;fill-opacity:1" d="M39.95 -16.95L39.95 -14.25L11.25 -14.25L11.25 -16.95L39.95 -16.95M39.95 -25L39.95 -22.3L11.25 -22.3L11.25 -25L39.95 -25" />
</g>
<g id="PathID_56" transform="matrix(3.38536, 3.38536, -3.38536, 3.38536, 105.45, 204.15)" opacity="1">
</g>
<g id="PathID_57" transform="matrix(4.74502, 0, 0, 4.74502, 314.95, 323.9)" opacity="1">
<path style="fill:#2E006F;fill-opacity:1" d="M13.05 -18.85L13.05 -10.6Q13.05 -6.55 13.15 -5.45Q13.25 -4.45 13.6 -3.8Q14.05 -3 15.15 -2.75L17.55 -2.45Q17.95 -2.4 17.95 -1.75Q17.95 -1.15 17.45 -1.15Q12.75 -1.35 10.15 -1.35Q7.5 -1.35 3.05 -1.15Q2.55 -1.15 2.55 -1.75Q2.55 -2.4 3.05 -2.45Q4.95 -2.65 5.45 -2.8Q6.25 -3.1 6.6 -3.8Q7.2 -4.9 7.2 -10.6L7.2 -29.1L7.15 -34.05Q7.05 -35 6.7 -35.8Q6.35 -36.5 5.1 -36.75L2.55 -37.05Q2.1 -37.1 2.1 -37.75Q2.1 -38.45 2.55 -38.45Q6.1 -38.3 9.85 -38.3L18.3 -38.5Q25.95 -38.5 29.55 -35.35Q32.3 -32.95 32.3 -28.9Q32.3 -25.6 29.95 -23.15Q27.7 -20.8 23.75 -19.75Q27.6 -12.8 31.1 -7.05Q33.05 -3.9 34.15 -3.2Q35 -2.7 37.25 -2.45Q37.65 -2.4 37.65 -1.8Q37.65 -1.15 37.25 -1.15L31.85 -1.35L27.1 -1.3Q26.4 -3.25 25.25 -5.25L17.9 -18.8L16.2 -18.75Q14.3 -18.75 13.05 -18.85M13.05 -20.6Q14.55 -20.4 16.35 -20.4Q21.55 -20.4 23.95 -23.1Q25.8 -25.15 25.8 -28.6Q25.8 -36.75 17.3 -36.75Q14.3 -36.75 13.6 -35.75Q13.05 -34.85 13.05 -31.1L13.05 -29.1L13.05 -20.6" />
</g>
<g id="PathID_58" transform="matrix(4.74502, 0, 0, 4.74502, 314.95, 323.9)" opacity="1">
</g>
<g id="PathID_59" transform="matrix(1.04214, 0, 0, 1.04214, 320.2, 341.35)" opacity="1">
<path style="fill:#A41D00;fill-opacity:1" d="M25.9 -29.7L25.9 -24.15L9.3 -24.15Q8.85 -24.15 8.5 -23.85Q8.2 -23.5 8.2 -23.05L8.2 0L2.65 0L2.65 -6.65L2.65 -23.05Q2.65 -24.4 3.15 -25.6Q3.7 -26.8 4.6 -27.75Q5.55 -28.65 6.75 -29.2Q7.95 -29.7 9.3 -29.7L25.9 -29.7" />
</g>
<g id="PathID_60" transform="matrix(1.04214, 0, 0, 1.04214, 320.2, 341.35)" opacity="1">
</g>
<g id="PathID_61" transform="matrix(1.04214, 0, 0, 1.04214, 347.45, 341.35)" opacity="1">
<path style="fill:#A41D00;fill-opacity:1" d="M26.15 -29.7Q27.55 -29.7 28.75 -29.2Q29.95 -28.65 30.85 -27.75Q31.8 -26.8 32.3 -25.6Q32.8 -24.4 32.8 -23.05L32.8 -12.05L8.1 -12.05L8.1 -6.65Q8.1 -6.2 8.45 -5.85Q8.8 -5.5 9.25 -5.5L32.8 -5.5L32.8 0L9.25 0Q7.85 0 6.65 -0.5Q5.45 -1 4.55 -1.95Q3.6 -2.85 3.1 -4.05Q2.6 -5.25 2.6 -6.65L2.6 -23.05Q2.6 -24.4 3.1 -25.6Q3.6 -26.8 4.55 -27.75Q5.45 -28.65 6.65 -29.2Q7.85 -29.7 9.25 -29.7L26.15 -29.7M27.3 -17.6L27.3 -23.05Q27.3 -23.5 26.95 -23.85Q26.6 -24.15 26.15 -24.15L9.25 -24.15Q8.8 -24.15 8.45 -23.85Q8.1 -23.5 8.1 -23.05L8.1 -17.6L27.3 -17.6" />
</g>
<g id="PathID_62" transform="matrix(1.04214, 0, 0, 1.04214, 347.45, 341.35)" opacity="1">
</g>
<g id="PathID_63" transform="matrix(1.04214, 0, 0, 1.04214, 384.35, 341.35)" opacity="1">
<path style="fill:#A41D00;fill-opacity:1" d="M26.2 -29.7Q27.6 -29.7 28.8 -29.2Q30 -28.65 30.9 -27.75Q31.85 -26.8 32.35 -25.6Q32.85 -24.4 32.85 -23.05L32.85 0L9.3 0Q7.95 0 6.75 -0.5Q5.55 -1 4.6 -1.95Q3.7 -2.85 3.15 -4.05Q2.65 -5.25 2.65 -6.65L2.65 -17.6L27.35 -17.6L27.35 -23.05Q27.35 -23.5 27 -23.85Q26.65 -24.15 26.2 -24.15L2.65 -24.15L2.65 -29.7L26.2 -29.7M27.35 -12.05L8.2 -12.05L8.2 -6.65Q8.2 -6.2 8.5 -5.85Q8.85 -5.5 9.3 -5.5L27.35 -5.5L27.35 -12.05" />
</g>
<g id="PathID_64" transform="matrix(1.04214, 0, 0, 1.04214, 384.35, 341.35)" opacity="1">
</g>
<g id="PathID_65" transform="matrix(1.04214, 0, 0, 1.04214, 421.4, 341.35)" opacity="1">
<path style="fill:#A41D00;fill-opacity:1" d="M2.65 -23.05L2.65 -39.4L8.2 -39.4L8.2 -6.65Q8.2 -6.2 8.5 -5.85Q8.85 -5.5 9.3 -5.5L14.85 -5.5L14.85 0L9.3 0Q7.95 0 6.75 -0.5Q5.55 -1 4.6 -1.95Q3.7 -2.85 3.15 -4.05Q2.65 -5.25 2.65 -6.65L2.65 -23.05" />
</g>
<g id="PathID_66" transform="matrix(1.04214, 0, 0, 1.04214, 421.4, 341.35)" opacity="1">
</g>
<g id="PathID_67" transform="matrix(1.04214, 0, 0, 1.04214, 437.4, 341.35)" opacity="1">
<path style="fill:#A41D00;fill-opacity:1" d="M2.65 -29.7L8.2 -29.7L8.2 0L2.65 0L2.65 -29.7M8.2 -39.4L8.2 -33.9L2.65 -33.9L2.65 -39.4L8.2 -39.4" />
</g>
<g id="PathID_68" transform="matrix(1.04214, 0, 0, 1.04214, 437.4, 341.35)" opacity="1">
</g>
<g id="PathID_69" transform="matrix(1.04214, 0, 0, 1.04214, 448.4, 341.35)" opacity="1">
<path style="fill:#A41D00;fill-opacity:1" d="M8.25 -24.15L8.25 -6.65Q8.25 -6.2 8.55 -5.85Q8.9 -5.5 9.35 -5.5L20.4 -5.5L20.4 0L9.35 0Q8 0 6.8 -0.5Q5.6 -1 4.65 -1.95Q3.75 -2.85 3.2 -4.05Q2.7 -5.25 2.7 -6.65L2.7 -23.05L2.7 -39.4L8.25 -39.4L8.25 -29.7L20.4 -29.7L20.4 -24.15L8.25 -24.15" />
</g>
<g id="PathID_70" transform="matrix(1.04214, 0, 0, 1.04214, 448.4, 341.35)" opacity="1">
</g>
<g id="PathID_71" transform="matrix(1.04214, 0, 0, 1.04214, 470.2, 341.35)" opacity="1">
<path style="fill:#A41D00;fill-opacity:1" d="M32.35 -11.35L32.35 -11.25L32.35 5.1Q32.35 6.5 31.85 7.7Q31.3 8.9 30.4 9.8Q29.45 10.75 28.25 11.25Q27.05 11.75 25.7 11.75L7.35 11.75L7.35 6.25L25.7 6.25Q26.15 6.25 26.5 5.9Q26.8 5.55 26.8 5.1L26.8 0L8.8 0Q7.4 0 6.2 -0.5Q5 -1 4.1 -1.95Q3.15 -2.85 2.65 -4.05Q2.15 -5.25 2.15 -6.65L2.15 -29.6L7.65 -29.6L7.65 -6.65Q7.65 -6.2 8 -5.85Q8.35 -5.5 8.8 -5.5L25.7 -5.5Q26.15 -5.5 26.5 -5.85Q26.8 -6.2 26.8 -6.65L26.8 -29.6L32.35 -29.6L32.35 -11.35" />
</g>
<g id="PathID_72" transform="matrix(1.04214, 0, 0, 1.04214, 470.2, 341.35)" opacity="1">
</g>
<g id="PathID_73" transform="matrix(1, 0, 0, 1, 258.85, 150.65)" opacity="1">
<path style="fill:#A41D00;fill-opacity:1" d="M9.5 9.5Q5.55 13.45 0 13.45Q-5.55 13.45 -9.5 9.5Q-13.45 5.55 -13.45 0Q-13.45 -5.55 -9.5 -9.5Q-5.55 -13.45 0 -13.45Q5.55 -13.45 9.5 -9.5Q13.45 -5.55 13.45 0Q13.45 5.55 9.5 9.5" />
</g>
<g id="PathID_74" transform="matrix(1, 0, 0, 1, 258.85, 150.65)" opacity="1">
<path style="fill:none;stroke-width:5.2;stroke-linecap:round;stroke-linejoin:round;stroke-miterlimit:3;stroke:#A41D00;stroke-opacity:1" d="M9.5 9.5Q5.55 13.45 0 13.45Q-5.55 13.45 -9.5 9.5Q-13.45 5.55 -13.45 0Q-13.45 -5.55 -9.5 -9.5Q-5.55 -13.45 0 -13.45Q5.55 -13.45 9.5 -9.5Q13.45 -5.55 13.45 0Q13.45 5.55 9.5 9.5z" />
</g>
<g id="PathID_75" transform="matrix(1, 0, 0, 1, 253.85, 293.65)" opacity="1">
<path style="fill:#A41D00;fill-opacity:1" d="M9.5 9.5Q5.55 13.45 0 13.45Q-5.55 13.45 -9.5 9.5Q-13.45 5.55 -13.45 0Q-13.45 -5.55 -9.5 -9.5Q-5.55 -13.45 0 -13.45Q5.55 -13.45 9.5 -9.5Q13.45 -5.55 13.45 0Q13.45 5.55 9.5 9.5" />
</g>
<g id="PathID_76" transform="matrix(1, 0, 0, 1, 253.85, 293.65)" opacity="1">
<path style="fill:none;stroke-width:5.2;stroke-linecap:round;stroke-linejoin:round;stroke-miterlimit:3;stroke:#A41D00;stroke-opacity:1" d="M9.5 9.5Q5.55 13.45 0 13.45Q-5.55 13.45 -9.5 9.5Q-13.45 5.55 -13.45 0Q-13.45 -5.55 -9.5 -9.5Q-5.55 -13.45 0 -13.45Q5.55 -13.45 9.5 -9.5Q13.45 -5.55 13.45 0Q13.45 5.55 9.5 9.5z" />
</g>
</svg>
