<?xml version="1.0" encoding="utf-8"?>
<svg version="1.1" id="Layer_1"
xmlns="http://www.w3.org/2000/svg"
xmlns:xlink="http://www.w3.org/1999/xlink"
width="205px" height="205px"
xml:space="preserve">
<g id="PathID_33" transform="matrix(1.67867, 1.67867, -1.67867, 1.67867, 26.5, 88.05)" opacity="1">
<path style="fill:#000000;fill-opacity:1" d="M7.4 -26.8L43.8 -26.8L43.8 -21.2L7.4 -21.2L7.4 -26.8M7.4 -15.6L43.8 -15.6L43.8 -10L7.4 -10L7.4 -15.6" />
</g>
<g id="PathID_34" transform="matrix(1.67867, 1.67867, -1.67867, 1.67867, 26.5, 88.05)" opacity="1">
</g>
<g id="PathID_35" transform="matrix(1, 0, 0, 1, 113, 47.35)" opacity="1">
<path style="fill:#000000;fill-opacity:1" d="M10.4 0Q10.4 -4.1 7.35 -7Q4.3 -9.9 0 -9.9Q-4.3 -9.9 -7.35 -7Q-10.4 -4.1 -10.4 0Q-10.4 4.1 -7.35 7Q-4.3 9.9 0 9.9Q4.3 9.9 7.35 7Q10.4 4.1 10.4 0" />
</g>
<g id="PathID_36" transform="matrix(1, 0, 0, 1, 113, 47.35)" opacity="1">
<path style="fill:none;stroke-width:5.2;stroke-linecap:round;stroke-linejoin:round;stroke-miterlimit:3;stroke:#000000;stroke-opacity:1" d="M7.35 7Q4.3 9.9 0 9.9Q-4.3 9.9 -7.35 7Q-10.4 4.1 -10.4 0Q-10.4 -4.1 -7.35 -7Q-4.3 -9.9 0 -9.9Q4.3 -9.9 7.35 -7Q10.4 -4.1 10.4 0Q10.4 4.1 7.35 7z" />
</g>
<g id="PathID_37" transform="matrix(1, 0, 0, 1, 85, 150.35)" opacity="1">
<path style="fill:#000000;fill-opacity:1" d="M10.4 0Q10.4 -4.1 7.35 -7Q4.3 -9.9 0 -9.9Q-4.3 -9.9 -7.35 -7Q-10.4 -4.1 -10.4 0Q-10.4 4.1 -7.35 7Q-4.3 9.9 0 9.9Q4.3 9.9 7.35 7Q10.4 4.1 10.4 0" />
</g>
<g id="PathID_38" transform="matrix(1, 0, 0, 1, 85, 150.35)" opacity="1">
<path style="fill:none;stroke-width:5.2;stroke-linecap:round;stroke-linejoin:round;stroke-miterlimit:3;stroke:#000000;stroke-opacity:1" d="M7.35 7Q4.3 9.9 0 9.9Q-4.3 9.9 -7.35 7Q-10.4 4.1 -10.4 0Q-10.4 -4.1 -7.35 -7Q-4.3 -9.9 0 -9.9Q4.3 -9.9 7.35 -7Q10.4 -4.1 10.4 0Q10.4 4.1 7.35 7z" />
</g>
</svg>
